# Blender 3.4.0
# www.blender.org
o Cube.930_Cube.004
v -0.576823 0.855627 0.359674
v -0.576823 0.966751 0.306821
v 0.579442 0.966751 0.306821
v 0.579442 0.855627 0.359674
v 0.579442 0.859597 0.368020
v 0.579442 0.970721 0.315171
v -0.576823 0.970721 0.315171
v -0.576823 0.859597 0.368020
v -0.576823 0.637496 -0.388419
v -0.576823 0.755901 -0.354918
v 0.579442 0.755901 -0.354918
v 0.579442 0.637496 -0.388419
v 0.579442 0.634980 -0.379523
v 0.579442 0.753384 -0.346026
v -0.576823 0.753384 -0.346026
v -0.576823 0.634980 -0.379523
v -0.482707 1.318556 -0.370456
v -0.482707 1.216765 -0.370456
v -0.527636 1.216765 -0.348018
v -0.527636 1.318556 -0.348018
v 0.548871 1.318556 -0.293837
v 0.548871 1.216765 -0.293837
v 0.530263 1.216765 -0.348018
v 0.530263 1.318556 -0.348018
v -0.482707 1.216765 0.773271
v -0.482707 1.318556 0.773271
v -0.527636 1.318556 0.750833
v -0.527636 1.216765 0.750833
v -0.546245 1.216765 -0.293837
v -0.546245 1.318556 -0.293837
v 0.485334 1.216765 0.773271
v 0.485334 1.318556 0.773271
v -0.546245 1.216765 0.696653
v -0.546245 1.318556 0.696653
v 0.485334 1.318556 -0.370456
v 0.485334 1.216765 -0.370456
v 0.530263 1.216765 0.750833
v 0.530263 1.318556 0.750833
v 0.548871 1.216765 0.696653
v 0.548871 1.318556 0.696653
v -0.476840 1.341677 0.737699
v -0.505053 1.341677 0.723603
v -0.516742 1.341677 0.689576
v -0.505053 1.341677 -0.320788
v -0.476840 1.341677 -0.334884
v -0.516742 1.341677 -0.286761
v 0.507680 1.341677 -0.320788
v 0.519368 1.341677 -0.286761
v 0.479459 1.341677 -0.334884
v 0.507680 1.341677 0.723603
v 0.479459 1.341677 0.737699
v 0.519368 1.341677 0.689576
v 0.471852 1.341677 -0.277591
v -0.469233 1.341677 0.680406
v -0.469233 1.341677 -0.277591
v 0.471852 1.341677 0.680406
v -0.578303 0.014952 0.801019
v -0.576449 2.021655 -0.152259
v -0.603633 2.008768 -0.182658
v -0.606303 0.000722 0.770978
v -0.550174 0.000659 0.771008
v -0.547679 2.004870 -0.180701
v -0.578303 -0.013587 0.740933
v -0.576526 1.992089 -0.211787
v -0.522609 2.136952 -0.252303
v -0.549899 2.161635 -0.228419
v -0.550822 2.127790 -0.285586
v -0.576556 2.152483 -0.260588
v -0.503802 2.279881 -0.312621
v -0.528094 2.274527 -0.347274
v -0.479922 2.245464 -0.329810
v -0.506915 2.241155 -0.366351
v -0.410594 2.374115 -0.400176
v -0.430652 2.372880 -0.439006
v -0.394793 2.331121 -0.409926
v -0.416736 2.331769 -0.450747
v -0.281703 2.432553 -0.471404
v -0.294886 2.433845 -0.514552
v -0.273959 2.385493 -0.476512
v -0.288150 2.389276 -0.521136
v -0.138850 2.409694 -0.507010
v -0.140941 2.457411 -0.503558
v -0.144801 2.414187 -0.553805
v -0.146609 2.460076 -0.549411
v 0.001310 2.461281 -0.511515
v 0.001310 2.464120 -0.558268
v 0.001310 2.413638 -0.515025
v 0.001310 2.418002 -0.561911
v 0.580922 0.014952 0.801019
v 0.608930 0.000722 0.770978
v 0.606259 2.008768 -0.182658
v 0.579076 2.021655 -0.152259
v 0.552793 0.000659 0.771008
v 0.550298 2.004870 -0.180701
v 0.580922 -0.013587 0.740933
v 0.579152 1.992089 -0.211787
v 0.552526 2.161635 -0.228419
v 0.525228 2.136952 -0.252303
v 0.553449 2.127790 -0.285586
v 0.579183 2.152483 -0.260588
v 0.530713 2.274527 -0.347274
v 0.506429 2.279881 -0.312621
v 0.482541 2.245464 -0.329810
v 0.509542 2.241155 -0.366351
v 0.433271 2.372880 -0.439006
v 0.413213 2.374115 -0.400176
v 0.397420 2.331121 -0.409926
v 0.419362 2.331769 -0.450747
v 0.297513 2.433845 -0.514552
v 0.284330 2.432553 -0.471404
v 0.276578 2.385493 -0.476512
v 0.290776 2.389276 -0.521136
v 0.143567 2.457411 -0.503558
v 0.141469 2.409694 -0.507010
v 0.147428 2.414187 -0.553805
v 0.149228 2.460076 -0.549411
v 0.001310 2.231517 -0.511016
v -0.149341 2.235282 -0.490363
v -0.155795 2.097310 -0.471206
v 0.001310 2.092456 -0.499324
v -0.140941 2.440644 -0.492430
v -0.281703 2.415787 -0.460276
v -0.304820 2.232655 -0.452521
v -0.166812 1.939297 -0.437091
v 0.001310 1.934170 -0.452998
v -0.490374 2.270044 -0.301497
v -0.403636 2.357349 -0.389048
v -0.328837 2.102601 -0.414916
v -0.356448 1.954527 -0.366484
v -0.535266 2.151797 -0.227595
v -0.562579 2.011818 -0.156070
v 0.001310 2.444515 -0.500388
v -0.140941 2.447573 -0.503558
v -0.281703 2.422715 -0.471404
v -0.410594 2.364278 -0.400176
v -0.503802 2.270044 -0.312621
v -0.549899 2.151797 -0.228419
v -0.576449 2.011818 -0.152259
v 0.001310 2.451444 -0.511515
v 0.158422 2.097310 -0.471206
v 0.151960 2.235282 -0.490363
v 0.143567 2.440644 -0.492430
v 0.307447 2.232655 -0.452521
v 0.284330 2.415787 -0.460276
v 0.169438 1.939297 -0.437091
v 0.493001 2.270044 -0.301493
v 0.406255 2.357349 -0.389048
v 0.331464 2.102601 -0.414916
v 0.359075 1.954527 -0.366484
v 0.565198 2.011818 -0.156070
v 0.537885 2.151797 -0.227595
v 0.284330 2.422715 -0.471404
v 0.143567 2.447573 -0.503558
v 0.506429 2.270044 -0.312621
v 0.413213 2.364278 -0.400176
v 0.579076 2.011818 -0.152259
v 0.552526 2.151797 -0.228419
v -0.578303 -0.009316 -0.533443
v -0.576449 1.712946 -0.042327
v -0.603633 1.757698 -0.063861
v -0.606303 -0.000164 -0.565398
v -0.550174 -0.000230 -0.565417
v -0.547679 1.757706 -0.063762
v -0.578303 0.008932 -0.597411
v -0.576526 1.803964 -0.085463
v 0.580922 -0.009316 -0.533443
v 0.608930 -0.000164 -0.565398
v 0.606259 1.757698 -0.063861
v 0.579076 1.712946 -0.042327
v 0.552793 -0.000230 -0.565417
v 0.550298 1.757706 -0.063758
v 0.580922 0.008932 -0.597411
v 0.579152 1.803964 -0.085463
vn -0.0000 -0.4295 -0.9031
vn -0.0000 0.4295 0.9031
vn -0.0000 -0.9031 0.4295
vn -0.0000 0.9031 -0.4294
vn -0.0000 0.2722 -0.9622
vn -0.0000 -0.2722 0.9622
vn -0.0000 -0.9623 -0.2722
vn -0.0000 0.9622 0.2724
vn -0.2295 -0.0000 -0.9733
vn -0.6739 0.4319 -0.5995
vn -0.2027 0.4520 -0.8687
vn 0.9864 -0.0000 -0.1647
vn 0.6739 0.4319 -0.5995
vn 0.8922 0.4258 -0.1507
vn -0.2027 0.4520 0.8687
vn -0.7523 -0.0000 0.6588
vn -0.2295 -0.0000 0.9733
vn -0.7523 -0.0000 -0.6588
vn -0.8922 0.4258 -0.1507
vn 0.2027 0.4520 0.8687
vn 0.2295 -0.0000 0.9733
vn -0.8922 0.4258 0.1507
vn -0.9864 -0.0000 -0.1647
vn -0.9864 -0.0000 0.1647
vn 0.2295 -0.0000 -0.9733
vn 0.6739 0.4319 0.5995
vn 0.7523 -0.0000 -0.6588
vn 0.2027 0.4520 -0.8687
vn 0.7523 -0.0000 0.6588
vn 0.8922 0.4258 0.1507
vn 0.9864 -0.0000 0.1647
vn -0.0765 0.9477 0.3100
vn -0.6739 0.4319 0.5995
vn -0.2757 0.9357 0.2200
vn -0.0765 0.9477 -0.3100
vn -0.2757 0.9357 -0.2200
vn -0.3458 0.9367 -0.0554
vn 0.2757 0.9357 -0.2200
vn 0.0764 0.9477 -0.3100
vn 0.0764 0.9477 0.3100
vn 0.2757 0.9357 0.2200
vn 0.3458 0.9367 0.0554
vn -0.3458 0.9367 0.0554
vn -0.0000 1.0000 -0.0000
vn 0.3458 0.9367 -0.0554
vn -0.0523 0.4566 0.8881
vn -1.0000 0.0009 -0.0001
vn -0.0010 0.4289 0.9034
vn 0.9964 -0.0673 0.0507
vn 1.0000 -0.0009 0.0007
vn -0.0010 -0.4292 -0.9032
vn -0.0567 -0.4481 -0.8922
vn 0.9724 -0.1905 0.1344
vn -0.9964 0.0809 -0.0234
vn -0.0705 -0.5173 -0.8529
vn -0.0312 0.6305 0.7756
vn -0.9704 0.2269 -0.0831
vn -0.0282 0.5311 0.8468
vn 0.8967 -0.3687 0.2451
vn -0.1654 -0.5601 -0.8117
vn 0.0254 0.6900 0.7233
vn -0.8828 0.4184 -0.2135
vn 0.7052 -0.5807 0.4067
vn -0.1886 -0.5773 -0.7944
vn 0.0394 0.7123 0.7008
vn -0.6868 0.6075 -0.3990
vn 0.4317 -0.7240 0.5380
vn -0.1401 -0.5759 -0.8055
vn 0.1666 -0.7625 0.6252
vn -0.4207 0.7052 -0.5707
vn -0.0577 -0.5989 -0.7987
vn 0.0290 0.6957 0.7177
vn -0.0000 0.7470 -0.6649
vn -0.1652 0.7476 -0.6432
vn -0.0000 -0.7708 0.6370
vn -0.0000 -0.6235 -0.7818
vn 1.0000 0.0009 -0.0001
vn 0.0524 0.4566 0.8881
vn 0.0010 0.4289 0.9034
vn -0.9964 -0.0673 0.0507
vn -1.0000 -0.0009 0.0007
vn 0.0009 -0.4292 -0.9032
vn 0.0568 -0.4481 -0.8922
vn 0.9964 0.0809 -0.0234
vn -0.9724 -0.1905 0.1344
vn 0.0705 -0.5173 -0.8529
vn 0.9704 0.2269 -0.0831
vn 0.0313 0.6305 0.7755
vn 0.0283 0.5311 0.8468
vn -0.8967 -0.3687 0.2451
vn 0.1655 -0.5601 -0.8118
vn 0.8828 0.4184 -0.2135
vn -0.0254 0.6900 0.7234
vn -0.7052 -0.5808 0.4067
vn 0.1887 -0.5773 -0.7944
vn 0.6868 0.6075 -0.3990
vn -0.0394 0.7123 0.7008
vn -0.4317 -0.7240 0.5380
vn 0.1401 -0.5759 -0.8055
vn 0.4207 0.7052 -0.5707
vn -0.1666 -0.7625 0.6252
vn 0.0577 -0.5989 -0.7987
vn 0.1652 0.7476 -0.6432
vn -0.0290 0.6957 0.7177
vn -0.0000 0.6777 0.7353
vn 0.1899 0.0595 0.9800
vn -0.0000 0.1935 0.9811
vn -0.0000 0.0342 0.9994
vn 0.1326 0.5365 0.8334
vn 0.0730 0.5086 0.8579
vn 0.2220 0.1788 0.9585
vn -0.0000 0.2423 0.9702
vn 0.4332 0.0883 0.8970
vn 0.2201 0.5440 0.8097
vn 0.0825 0.5802 0.8103
vn 0.5051 0.1682 0.8465
vn 0.2204 0.2045 0.9537
vn 0.3346 0.4045 0.8511
vn 0.5576 0.1813 0.8101
vn -0.0000 0.4780 0.8783
vn -0.0507 0.8478 0.5279
vn -0.4303 0.7119 0.5550
vn 0.4518 0.3490 0.8210
vn -0.0397 0.5188 0.8539
vn 0.2394 0.4286 0.8712
vn -0.0093 0.8488 0.5286
vn -0.1256 0.8057 0.5788
vn -0.1899 0.0595 0.9800
vn -0.1326 0.5365 0.8334
vn -0.0730 0.5086 0.8579
vn -0.2220 0.1788 0.9585
vn -0.2201 0.5440 0.8097
vn -0.4332 0.0883 0.8970
vn -0.0825 0.5803 0.8103
vn -0.2204 0.2045 0.9537
vn -0.5051 0.1682 0.8465
vn -0.5576 0.1813 0.8101
vn -0.3346 0.4045 0.8511
vn 0.0507 0.8478 0.5279
vn 0.4304 0.7119 0.5550
vn -0.4518 0.3490 0.8210
vn 0.0396 0.5188 0.8540
vn 0.0093 0.8488 0.5286
vn 0.1256 0.8057 0.5788
vn -0.0160 -0.2743 0.9615
vn -1.0000 0.0012 0.0006
vn -0.0010 -0.2742 0.9617
vn 1.0000 -0.0012 -0.0000
vn -0.0012 0.2744 -0.9616
vn 0.9327 0.0979 -0.3472
vn -0.9383 0.0958 -0.3322
vn 1.0000 0.0012 0.0006
vn 0.0161 -0.2743 0.9615
vn 0.0010 -0.2742 0.9617
vn -1.0000 -0.0012 0.0001
vn -0.9327 0.0979 -0.3472
vn 0.0012 0.2744 -0.9616
vn 0.0045 0.2743 -0.9616
vn 0.9383 0.0958 -0.3322
vn -0.0000 0.8489 0.5286
vn -0.2392 0.4286 0.8712
vn -0.0045 0.2743 -0.9616
vt 0.375000 0.250000
vt 0.125000 0.500000
vt 0.625000 0.250000
vt 0.875000 0.500000
vt 0.625000 0.500000
vt 0.375000 0.500000
vt 0.375000 0.750000
vt 0.625000 0.750000
vt 0.625000 1.000000
vt 0.875000 0.750000
vt 0.375000 1.000000
vt 0.125000 0.750000
vt 0.375000 0.250000
vt 0.125000 0.500000
vt 0.625000 0.250000
vt 0.875000 0.500000
vt 0.625000 0.500000
vt 0.375000 0.500000
vt 0.375000 0.750000
vt 0.625000 0.750000
vt 0.625000 1.000000
vt 0.875000 0.750000
vt 0.375000 1.000000
vt 0.125000 0.750000
vt 0.860495 0.500000
vt 0.618265 0.264505
vt 0.375000 0.264505
vt 0.293083 0.334968
vt 0.695768 0.334968
vt 0.706917 0.334968
vt 0.618265 0.516747
vt 0.375000 0.516747
vt 0.373584 0.501635
vt 0.619605 0.501635
vt 0.626416 0.501635
vt 0.375000 0.985495
vt 0.618265 0.985495
vt 0.860495 0.750000
vt 0.618265 1.000000
vt 0.870752 0.745095
vt 0.618265 0.000000
vt 0.375000 0.000000
vt 0.375000 1.000000
vt 0.375000 0.233253
vt 0.618265 0.233253
vt 0.875000 0.516747
vt 0.375000 0.764505
vt 0.618265 0.764505
vt 0.639505 0.750000
vt 0.375000 0.016747
vt 0.875000 0.733253
vt 0.618265 0.016747
vt 0.639505 0.500000
vt 0.618265 0.485495
vt 0.375000 0.485495
vt 0.373584 0.748365
vt 0.626416 0.748365
vt 0.619605 0.748365
vt 0.375000 0.733253
vt 0.618265 0.733253
vt 0.859083 0.742151
vt 0.865531 0.739077
vt 0.868189 0.731629
vt 0.792998 0.435555
vt 0.625000 0.265845
vt 0.826089 0.473480
vt 0.835202 0.484001
vt 0.633100 0.509360
vt 0.631110 0.517582
vt 0.625000 0.484155
vt 0.640218 0.507061
vt 0.633109 0.740552
vt 0.640229 0.742838
vt 0.631120 0.732321
vt 0.640905 0.519230
vt 0.641511 0.518447
vt 0.856113 0.729075
vt 0.856712 0.728285
vt 0.819917 0.481547
vt 0.819266 0.480796
vt 0.641291 0.729657
vt 0.641935 0.730400
vt 0.000000 0.000000
vt 0.000000 0.000000
vt 0.000000 0.000000
vt 0.000000 0.000000
vt 0.000000 0.000000
vt 0.000000 0.000000
vt 0.000000 0.000000
vt 0.000000 0.000000
vt 0.000000 0.000000
vt 0.000000 0.000000
vt 0.000000 0.000000
vt 0.000000 0.000000
vt 0.000000 0.000000
vt 0.000000 0.000000
vt 0.000000 0.000000
vt 0.000000 0.000000
vt 0.000000 0.000000
vt 0.000000 0.000000
vt 0.000000 0.000000
vt 0.000000 0.000000
vt 0.000000 0.000000
vt 0.000000 0.000000
vt 0.000000 0.000000
vt 0.000000 0.000000
vt 0.000000 0.000000
vt 0.000000 0.000000
vt 0.000000 0.000000
vt 0.000000 0.000000
vt 0.000000 0.000000
vt 0.000000 0.000000
vt 0.000000 0.000000
vt 0.000000 0.000000
vt 0.000000 0.000000
vt 0.000000 0.000000
vt 0.000000 0.000000
vt 0.000000 0.000000
vt 0.000000 0.000000
vt 0.000000 0.000000
vt 0.000000 0.000000
vt 0.000000 0.000000
vt 0.000000 0.000000
vt 0.000000 0.000000
vt 0.000000 0.000000
vt 0.000000 0.000000
vt 0.000000 0.000000
vt 0.000000 0.000000
vt 0.000000 0.000000
vt 0.000000 0.000000
vt 0.000000 0.000000
vt 0.000000 0.000000
vt 0.000000 0.000000
vt 0.000000 0.000000
vt 0.000000 0.000000
vt 0.000000 0.000000
vt 0.000000 0.000000
vt 0.000000 0.000000
vt 0.000000 0.000000
vt 0.000000 0.000000
vt 0.000000 0.000000
vt 0.000000 0.000000
vt 0.000000 0.000000
vt 0.000000 0.000000
vt 0.000000 0.000000
vt 0.000000 0.000000
vt 0.000000 0.000000
vt 0.000000 0.000000
vt 0.000000 0.000000
vt 0.000000 0.000000
vt 0.000000 0.000000
vt 0.000000 0.000000
vt 0.000000 0.000000
vt 0.000000 0.000000
vt 0.000000 0.000000
vt 0.000000 0.000000
vt 0.000000 0.000000
vt 0.000000 0.000000
vt 0.000000 0.000000
vt 0.000000 0.000000
vt 0.000000 0.000000
vt 0.000000 0.000000
vt 0.000000 0.000000
vt 0.000000 0.000000
vt 0.000000 0.000000
vt 0.000000 0.000000
vt 0.000000 0.000000
vt 0.000000 0.000000
vt 0.000000 0.000000
vt 0.000000 0.000000
vt 0.000000 0.000000
vt 0.000000 0.000000
vt 0.000000 0.000000
vt 0.000000 0.000000
vt 0.000000 0.000000
vt 0.000000 0.000000
vt 0.000000 0.000000
vt 0.000000 0.000000
vt 0.000000 0.000000
vt 0.000000 0.000000
vt 0.000000 0.000000
vt 0.000000 0.000000
vt 0.000000 0.000000
vt 0.000000 0.000000
vt 0.000000 0.000000
vt 0.000000 0.000000
vt 0.000000 0.000000
vt 0.000000 0.000000
vt 0.000000 0.000000
vt 0.000000 0.000000
vt 0.000000 0.000000
vt 0.000000 0.000000
vt 0.000000 0.000000
vt 0.000000 0.000000
vt 0.000000 0.000000
vt 0.000000 0.000000
vt 0.000000 0.000000
vt 0.000000 0.000000
vt 0.000000 0.000000
s 0
f 2/3/1 4/6/1 1/1/1
f 6/8/2 8/11/2 5/7/2
f 4/6/3 8/12/3 1/2/3
f 2/4/4 6/8/4 3/5/4
f 10/15/5 12/18/5 9/13/5
f 14/20/6 16/23/6 13/19/6
f 12/18/7 16/24/7 9/14/7
f 10/16/8 14/20/8 11/17/8
s 1
f 18/27/9 20/29/10 17/26/11
f 22/32/12 24/34/13 21/31/14
f 26/37/15 28/43/16 25/36/17
f 19/28/18 30/45/19 20/29/10
f 32/48/20 25/36/17 31/47/21
f 34/52/22 29/44/23 33/50/24
f 17/26/11 36/55/25 18/27/9
f 31/47/21 38/58/26 32/48/20
f 23/33/27 35/54/28 24/34/13
f 37/56/29 40/60/30 38/58/26
f 21/31/14 39/59/31 22/32/12
f 41/61/32 27/40/33 26/38/15
f 42/62/34 34/51/22 27/40/33
f 45/66/35 20/30/10 44/64/36
f 44/64/36 30/46/19 46/67/37
f 47/68/38 21/31/14 24/34/13
f 49/71/39 24/35/13 35/53/28
f 51/73/40 38/57/26 50/72/41
f 50/72/41 40/60/30 52/74/42
f 46/67/37 34/51/22 43/63/43
f 51/73/40 26/38/15 32/49/20
f 21/31/14 52/74/42 40/60/30
f 17/26/11 49/70/39 35/54/28
f 27/41/33 33/50/24 28/42/16
f 47/68/38 53/75/44 48/69/45
f 54/78/44 42/62/34 41/61/32
f 44/64/36 55/80/44 45/66/35
f 55/79/44 43/63/43 54/78/44
f 54/77/44 51/73/40 56/82/44
f 56/81/44 48/69/45 53/75/44
f 53/76/44 45/66/35 55/80/44
f 50/72/41 56/82/44 51/73/40
f 55/80/44 56/82/44 53/76/44
f 58/84/46 60/86/47 57/83/48
f 62/88/49 57/83/48 61/87/50
f 63/89/51 62/88/49 61/87/50
f 60/86/47 64/90/52 63/89/51
f 65/91/53 58/84/46 62/88/49
f 64/90/52 65/91/53 62/88/49
f 59/85/54 67/93/55 64/90/52
f 69/95/56 68/94/57 66/92/58
f 71/97/59 66/92/58 65/91/53
f 67/93/55 71/97/59 65/91/53
f 68/94/57 72/98/60 67/93/55
f 66/92/58 59/85/54 58/84/46
f 73/99/61 70/96/62 69/95/56
f 75/101/63 69/95/56 71/97/59
f 72/98/60 75/101/63 71/97/59
f 70/96/62 76/102/64 72/98/60
f 77/103/65 74/100/66 73/99/61
f 79/105/67 73/99/61 75/101/63
f 76/102/64 79/105/67 75/101/63
f 74/100/66 80/106/68 76/102/64
f 81/107/69 77/103/65 79/105/67
f 80/106/68 81/107/69 79/105/67
f 78/104/70 83/109/71 80/106/68
f 82/108/72 86/112/73 84/110/74
f 87/113/75 82/108/72 81/107/69
f 88/114/76 81/107/69 83/109/71
f 84/110/74 88/114/76 83/109/71
f 82/108/72 78/104/70 77/103/65
f 90/116/77 92/118/78 89/115/79
f 89/115/79 94/120/80 93/119/81
f 95/121/82 94/120/80 96/122/83
f 90/116/77 96/122/83 91/117/84
f 92/118/78 98/124/85 94/120/80
f 96/122/83 98/124/85 99/125/86
f 91/117/84 99/125/86 100/126/87
f 100/126/87 102/128/88 97/123/89
f 97/123/89 103/129/90 98/124/85
f 99/125/86 103/129/90 104/130/91
f 100/126/87 104/130/91 101/127/92
f 91/117/84 97/123/89 92/118/78
f 101/127/92 106/132/93 102/128/88
f 102/128/88 107/133/94 103/129/90
f 104/130/91 107/133/94 108/134/95
f 101/127/92 108/134/95 105/131/96
f 105/131/96 110/136/97 106/132/93
f 106/132/93 111/137/98 107/133/94
f 108/134/95 111/137/98 112/138/99
f 105/131/96 112/138/99 109/135/100
f 110/136/97 114/140/101 111/137/98
f 112/138/99 114/140/101 115/141/102
f 109/135/100 115/141/102 116/142/103
f 113/139/104 86/112/73 85/111/105
f 113/139/104 87/113/75 114/140/101
f 114/140/101 88/114/76 115/141/102
f 116/142/103 88/114/76 86/112/73
f 109/135/100 113/139/104 110/136/97
f 118/144/106 120/146/107 117/143/108
f 122/148/109 118/144/106 121/147/110
f 119/145/111 125/151/112 120/146/107
f 123/149/113 127/153/114 126/152/115
f 123/149/113 119/145/111 118/144/106
f 128/154/116 124/150/117 119/145/111
f 130/156/118 129/155/119 128/154/116
f 126/152/115 128/154/116 123/149/113
f 121/147/110 117/143/108 132/158/120
f 121/147/110 134/160/121 122/148/109
f 127/153/114 136/162/122 126/152/115
f 131/157/123 137/163/124 138/164/125
f 132/158/120 133/159/126 121/147/110
f 122/148/109 135/161/127 127/153/114
f 130/156/118 136/162/122 137/163/124
f 120/146/107 141/167/128 117/143/108
f 141/167/128 144/170/129 142/168/130
f 125/151/112 140/166/131 120/146/107
f 147/173/132 143/169/133 146/172/134
f 140/166/131 143/169/133 141/167/128
f 145/171/135 148/174/136 140/166/131
f 149/175/137 151/177/138 148/174/136
f 148/174/136 146/172/134 143/169/133
f 117/143/108 142/168/130 132/158/120
f 152/178/139 142/168/130 144/170/129
f 154/180/140 147/173/132 146/172/134
f 150/176/141 157/183/142 151/177/138
f 153/179/143 132/158/120 142/168/130
f 155/181/144 144/170/129 147/173/132
f 151/177/138 154/180/140 146/172/134
f 159/185/145 161/187/146 158/184/147
f 162/188/148 159/185/145 158/184/147
f 164/190/149 163/189/150 162/188/148
f 160/186/151 164/190/149 161/187/146
f 167/193/152 169/195/153 166/192/154
f 170/196/155 169/195/153 171/197/156
f 172/198/157 171/197/156 173/199/158
f 172/198/157 168/194/159 167/193/152
s 0
f 2/3/1 3/5/1 4/6/1
f 6/8/2 7/9/2 8/11/2
f 4/6/3 5/7/3 8/12/3
f 2/4/4 7/10/4 6/8/4
f 10/15/5 11/17/5 12/18/5
f 14/20/6 15/21/6 16/23/6
f 12/18/7 13/19/7 16/24/7
f 10/16/8 15/22/8 14/20/8
s 1
f 18/27/9 19/28/18 20/29/10
f 22/32/12 23/33/27 24/34/13
f 26/37/15 27/39/33 28/43/16
f 19/28/18 29/44/23 30/45/19
f 32/48/20 26/37/15 25/36/17
f 34/52/22 30/45/19 29/44/23
f 17/26/11 35/54/28 36/55/25
f 31/47/21 37/56/29 38/58/26
f 23/33/27 36/55/25 35/54/28
f 37/56/29 39/59/31 40/60/30
f 21/31/14 40/60/30 39/59/31
f 41/61/32 42/62/34 27/40/33
f 42/62/34 43/63/43 34/51/22
f 45/66/35 17/25/11 20/30/10
f 44/64/36 20/30/10 30/46/19
f 47/68/38 48/69/45 21/31/14
f 49/71/39 47/68/38 24/35/13
f 51/73/40 32/49/20 38/57/26
f 50/72/41 38/58/26 40/60/30
f 46/67/37 30/46/19 34/51/22
f 51/73/40 41/61/32 26/38/15
f 21/31/14 48/69/45 52/74/42
f 17/26/11 45/65/35 49/70/39
f 27/41/33 34/52/22 33/50/24
f 47/68/38 49/71/39 53/75/44
f 54/78/44 43/63/43 42/62/34
f 44/64/36 46/67/37 55/80/44
f 55/79/44 46/67/37 43/63/43
f 54/77/44 41/61/32 51/73/40
f 56/81/44 52/74/42 48/69/45
f 53/76/44 49/71/39 45/66/35
f 50/72/41 52/74/42 56/82/44
f 55/80/44 54/78/44 56/82/44
f 58/84/46 59/85/54 60/86/47
f 62/88/49 58/84/46 57/83/48
f 63/89/51 64/90/52 62/88/49
f 60/86/47 59/85/54 64/90/52
f 65/91/53 66/92/58 58/84/46
f 64/90/52 67/93/55 65/91/53
f 59/85/54 68/94/57 67/93/55
f 69/95/56 70/96/62 68/94/57
f 71/97/59 69/95/56 66/92/58
f 67/93/55 72/98/60 71/97/59
f 68/94/57 70/96/62 72/98/60
f 66/92/58 68/94/57 59/85/54
f 73/99/61 74/100/66 70/96/62
f 75/101/63 73/99/61 69/95/56
f 72/98/60 76/102/64 75/101/63
f 70/96/62 74/100/66 76/102/64
f 77/103/65 78/104/70 74/100/66
f 79/105/67 77/103/65 73/99/61
f 76/102/64 80/106/68 79/105/67
f 74/100/66 78/104/70 80/106/68
f 81/107/69 82/108/72 77/103/65
f 80/106/68 83/109/71 81/107/69
f 78/104/70 84/110/74 83/109/71
f 82/108/72 85/111/105 86/112/73
f 87/113/75 85/111/105 82/108/72
f 88/114/76 87/113/75 81/107/69
f 84/110/74 86/112/73 88/114/76
f 82/108/72 84/110/74 78/104/70
f 90/116/77 91/117/84 92/118/78
f 89/115/79 92/118/78 94/120/80
f 95/121/82 93/119/81 94/120/80
f 90/116/77 95/121/82 96/122/83
f 92/118/78 97/123/89 98/124/85
f 96/122/83 94/120/80 98/124/85
f 91/117/84 96/122/83 99/125/86
f 100/126/87 101/127/92 102/128/88
f 97/123/89 102/128/88 103/129/90
f 99/125/86 98/124/85 103/129/90
f 100/126/87 99/125/86 104/130/91
f 91/117/84 100/126/87 97/123/89
f 101/127/92 105/131/96 106/132/93
f 102/128/88 106/132/93 107/133/94
f 104/130/91 103/129/90 107/133/94
f 101/127/92 104/130/91 108/134/95
f 105/131/96 109/135/100 110/136/97
f 106/132/93 110/136/97 111/137/98
f 108/134/95 107/133/94 111/137/98
f 105/131/96 108/134/95 112/138/99
f 110/136/97 113/139/104 114/140/101
f 112/138/99 111/137/98 114/140/101
f 109/135/100 112/138/99 115/141/102
f 113/139/104 116/142/103 86/112/73
f 113/139/104 85/111/105 87/113/75
f 114/140/101 87/113/75 88/114/76
f 116/142/103 115/141/102 88/114/76
f 109/135/100 116/142/103 113/139/104
f 118/144/106 119/145/111 120/146/107
f 122/148/109 123/149/113 118/144/106
f 119/145/111 124/150/117 125/151/112
f 123/149/113 122/148/109 127/153/114
f 123/149/113 128/154/116 119/145/111
f 128/154/116 129/155/119 124/150/117
f 130/156/118 131/157/123 129/155/119
f 126/152/115 130/156/118 128/154/116
f 121/147/110 118/144/106 117/143/108
f 121/147/110 133/159/126 134/160/121
f 127/153/114 135/161/127 136/162/122
f 131/157/123 130/156/118 137/163/124
f 132/158/120 139/165/160 133/159/126
f 122/148/109 134/160/121 135/161/127
f 130/156/118 126/152/115 136/162/122
f 120/146/107 140/166/131 141/167/128
f 141/167/128 143/169/133 144/170/129
f 125/151/112 145/171/135 140/166/131
f 147/173/132 144/170/129 143/169/133
f 140/166/131 148/174/136 143/169/133
f 145/171/135 149/175/137 148/174/136
f 149/175/137 150/176/141 151/177/138
f 148/174/136 151/177/138 146/172/134
f 117/143/108 141/167/128 142/168/130
f 152/178/139 153/179/143 142/168/130
f 154/180/140 155/181/144 147/173/132
f 150/176/141 156/182/161 157/183/142
f 153/179/143 139/165/160 132/158/120
f 155/181/144 152/178/139 144/170/129
f 151/177/138 157/183/142 154/180/140
f 159/185/145 160/186/151 161/187/146
f 162/188/148 163/189/150 159/185/145
f 164/190/149 165/191/162 163/189/150
f 160/186/151 165/191/162 164/190/149
f 167/193/152 168/194/159 169/195/153
f 170/196/155 166/192/154 169/195/153
f 172/198/157 170/196/155 171/197/156
f 172/198/157 173/199/158 168/194/159
